# xmcd CD database file
#
# Track frame offsets:
#	150
#	35442
#	47966
#	73816
#	125975
#	151619
#	162216
#	201690
#	224682
#
# Disc length: 3364 seconds
#
# Revision: 0
# Processed by: cddbd v1.5.1PL0 Copyright (c) Steve Scherf et al.
# Submitted via: CDex 1.51
#
DISCID=8f0d2209
DTITLE=SMQ (The Stephanie Morgan Quartet) - Reel
DYEAR=2004
DGENRE=Jazz
TTITLE0=Fever
TTITLE1=It Don't Mean A Thing
TTITLE2=Kissing My Love
TTITLE3=Ain't No Sunshine
TTITLE4=Evening
TTITLE5=Them There Eyes
TTITLE6=Stormy Weather
TTITLE7=All Of Me
TTITLE8=My Favorite Things
EXTD=YEAR: 2004
EXTT0=
EXTT1=
EXTT2=
EXTT3=
EXTT4=
EXTT5=
EXTT6=
EXTT7=
EXTT8=
PLAYORDER=
